HIERARCHY
ROOT Hips
{
	OFFSET	0.00	0.00	0.00
	CHANNELS 6 Xposition Yposition Zposition Zrotation Xrotation Yrotation
	JOINT Spine
	{
		OFFSET	 0.00	0.01	 0.00
		CHANNELS 3 Zrotation Xrotation Yrotation
		JOINT Spine1
		{
			OFFSET	 0.00	 2.45913012437421	 0.00
			CHANNELS 3 Zrotation Xrotation Yrotation
            JOINT Neck
            {
                OFFSET	 0.00	 2.48462964506057	 0.00
                CHANNELS 3 Zrotation Xrotation Yrotation
                JOINT Head
                {
                    OFFSET	 0.00	 0.927524780924562	 0.00
                    CHANNELS 3 Zrotation Xrotation Yrotation
                    End Site 
                    {
                        OFFSET	 0.00	 1.14999962169752	 0.00
                    }
                }
            }
			JOINT LeftShoulder
			{
				OFFSET	 0.00	 2.48462964506057	 0.00
				CHANNELS 3 Zrotation Xrotation Yrotation
				JOINT LeftUpArm
				{
					OFFSET	 0.00	 1.24881979654096	 0.00
					CHANNELS 3 Zrotation Xrotation Yrotation
					JOINT LeftForeArm
					{
						OFFSET	 0.00	2.59758046908119	 0.00
						CHANNELS 3 Zrotation Xrotation Yrotation
						JOINT LeftHand
						{
							OFFSET	 0.00	2.45542024364365	 0.00
							CHANNELS 3 Zrotation Xrotation Yrotation
							JOINT LeftHandThumb 
							{
								OFFSET	 0.00	0.00	 0.00
								CHANNELS 3 Zrotation Xrotation Yrotation
								End Site
								{
									OFFSET	 0.00	0.00	1.00000003353624
								}
							}
							JOINT L_Wrist_End 
							{
								OFFSET	 0.00	0.99999967115358	 0.00
								CHANNELS 3 Zrotation Xrotation Yrotation
								End Site 
								{
									OFFSET	 0.00	 0.00	 0.00
								}
							}
						}
					}
				}
			}
			JOINT RightShoulder
			{
				OFFSET	 0.00	 2.48462964506057	 0.00
				CHANNELS 3 Zrotation Xrotation Yrotation
				JOINT RightUpArm
				{
					OFFSET	 0.00	 1.24881979654096	 0.00
					CHANNELS 3 Zrotation Xrotation Yrotation
					JOINT RightForeArm
					{
						OFFSET	 0.00	2.59758046908119	 0.00
						CHANNELS 3 Zrotation Xrotation Yrotation
						JOINT RightHand
						{
							OFFSET	 0.00	2.45542024364365	 0.00
							CHANNELS 3 Zrotation Xrotation Yrotation
							JOINT RightHandThumb 
							{
								OFFSET	 0.00	0.00	 0.00
								CHANNELS 3 Zrotation Xrotation Yrotation
								End Site
								{
									OFFSET	 0.00	0.00	1.00000003353624
								}
							}
							JOINT R_Wrist_End 
							{
								OFFSET	 0.00	0.99999967115358	 0.00
								CHANNELS 3 Zrotation Xrotation Yrotation
								End Site 
								{
									OFFSET	 0.00	 0.00	 0.00
								}
							}
						}
					}
				}
			}
		}
	}
	JOINT LeftUpLeg
	{
		OFFSET	 1.2719394002717	 0.00	 0.00
		CHANNELS 3 Zrotation Xrotation Yrotation
		JOINT LeftLowLeg
		{
			OFFSET	 0.00	-4.3429100912261	 0.00
			CHANNELS 3 Zrotation Xrotation Yrotation
			JOINT LeftFoot
			{
				OFFSET	 0.00	-4.48767017425826	 0.00
				CHANNELS 3 Zrotation Xrotation Yrotation
				JOINT LeftToeBase
                {
                    OFFSET	 0.00	0.00	 1.51507020887566
                    CHANNELS 3 Zrotation Xrotation Yrotation
                    End Site 
                    {
                        OFFSET	 0.00	0.00	 0.75000010571191
                    }
                }
			}
		}
	}
	JOINT RightUpLeg
	{
		OFFSET	 -1.2719393604653	 0.00	 0.00
		CHANNELS 3 Zrotation Xrotation Yrotation
		JOINT RightLowLeg
		{
			OFFSET	 0.00	-4.3429100912261	 0.00
			CHANNELS 3 Zrotation Xrotation Yrotation
			JOINT RightFoot
			{
				OFFSET	 0.00	-4.48767017425826	 0.00
				CHANNELS 3 Zrotation Xrotation Yrotation
				JOINT RightToeBase
                {
                    OFFSET	 0.00	0.00	 1.51507020887566
                    CHANNELS 3 Zrotation Xrotation Yrotation
                    End Site 
                    {
                        OFFSET	 0.00	0.00	 0.749999965609858
                    }
                }   
			}
		}
	}
}
MOTION 
Frames:	17 
Frame Time: 0.02 
  0.4969179916381836 10.430799560546875 6.792360229492187 5.3134 69.3068 -363.219 -1.78059 5.243 7.97754 -2.69834 22.194 1.17806 14.1153 26.622 -33.3681 85.9248 -76.052 1536.64 -115.2225 8.26404 7.00831 -52.6508 43.85 47.3689 0.0 11.8856 0.0 32.376 -6.79973 48.8803 0.0 0.0 0.0 0.0 0.0 0.0 118.895096 4.83304 -4.69894 60.8882 34.7183 -365.854 0.0 141.738 0.0 25.3398 17.3879 34.786 0.0 0.0 0.0 0.0 0.0 0.0 13.2877 -48.0983 9.16047 0.0 59.0422 0.0 -22.4163 23.42634 2.91345 0.0 -19.24937 0.0 12.7395 -66.3535 365.727 0.0 120.228 0.0 27.3695 15.549693 7.7286 0.0 -31.1625 0.0 
  0.5007979965209961 10.41260009765625 6.802570190429687 4.87299 69.6113 -362.566 -1.87259 5.02647 7.77066 -2.27887 22.2469 1.00809 13.9863 26.5592 -33.1233 85.9465 -76.0226 1536.13 -115.1286 8.11791 6.98619 -52.8441 43.3554 48.5745 0.0 12.1546 0.0 33.57 -6.63185 48.9399 0.0 0.0 0.0 0.0 0.0 0.0 118.6318 5.03042 -4.51568 61.1 34.4292 -365.75 0.0 141.788 0.0 25.6012 17.6107 34.6416 0.0 0.0 0.0 0.0 0.0 0.0 13.5114 -47.8818 9.42518 0.0 58.0561 0.0 -22.5501 23.338581 3.22437 0.0 -19.19854 0.0 12.8199 -65.6021 365.672 0.0 120.939 0.0 27.9496 15.338225 8.47541 0.0 -33.474503 0.0 
  0.5051959991455078 10.39030029296875 6.811840209960938 4.45973 70.0262 -361.949 -2.00957 4.66461 7.58904 -1.8154 22.2768 0.86254 14.3044 26.4637 -33.298 86.1997 -75.9363 1536.1 -115.0999 8.10092 7.10639 -52.9363 42.906 49.406 0.0 12.2596 0.0 34.3954 -6.65342 48.7321 0.0 0.0 0.0 0.0 0.0 0.0 118.5003 5.06429 -4.97961 60.9788 34.807 -365.247 0.0 141.77 0.0 25.7858 18.0205 34.4428 0.0 0.0 0.0 0.0 0.0 0.0 13.7557 -47.7251 9.74942 0.0 57.1862 0.0 -22.6475 23.35006 3.46691 0.0 -19.02309 0.0 13.0595 -65.1282 365.944 0.0 121.676 0.0 24.764 14.630763 9.70403 0.0 -36.7153 0.0 
  0.5120769882202149 10.3681005859375 6.820159912109375 3.9556 70.4117 -361.312 -2.0843 4.26869 7.43178 -1.36663 22.5014 0.761151 14.4737 26.0854 -33.2934 85.6301 -75.7422 1535.15 -115.0428 8.076 7.24675 -53.0746 42.6518 49.6901 0.0 12.2094 0.0 35.0139 -6.24723 48.5282 0.0 0.0 0.0 0.0 0.0 0.0 118.1468 5.26544 -4.7031 61.2839 34.45 -365.189 0.0 141.897 0.0 26.003 18.2423 34.2543 0.0 0.0 0.0 0.0 0.0 0.0 14.0075 -47.455 10.0367 0.0 56.3844 0.0 -22.8949 23.43266 3.60366 0.0 -19.06626 0.0 13.3735 -64.6421 366.305 0.0 122.335 0.0 19.5722 12.665421 10.5396 0.0 -36.7271 0.0 
  0.5201129913330078 10.346199951171876 6.828469848632812 3.35077 70.7282 -360.653 -2.09324 3.9288 7.31534 -1.02759 22.7326 0.694742 14.8587 25.7966 -33.3685 85.5537 -75.4769 1534.72 -114.9814 8.14297 7.27691 -53.1836 42.3136 49.5852 0.0 12.0214 0.0 35.4781 -5.77759 48.0514 0.0 0.0 0.0 0.0 0.0 0.0 118.0226 5.32189 -4.98809 61.2864 34.7749 -364.851 0.0 141.886 0.0 26.3098 18.7031 34.1914 0.0 0.0 0.0 0.0 0.0 0.0 14.2618 -47.0062 10.2771 0.0 55.6093 0.0 -23.1102 23.44265 3.63752 0.0 -19.37345 0.0 13.8317 -64.2996 367.064 0.0 122.751 0.0 17.429 12.09779 11.5771 0.0 -38.0511 0.0 
  0.529984016418457 10.325799560546875 6.83552978515625 2.77543 71.0285 -360.107 -2.09426 3.56775 7.19845 -0.696861 23.0984 0.628824 15.106 25.4278 -33.2679 85.6015 -75.1644 1534.34 -114.9637 8.19255 7.31854 -53.1014 42.1325 49.185 0.0 11.9589 0.0 35.6786 -5.84569 47.5021 0.0 0.0 0.0 0.0 0.0 0.0 117.813 5.48241 -4.84572 61.532 34.7154 -364.844 0.0 141.951 0.0 26.5016 19.0224 33.8502 0.0 0.0 0.0 0.0 0.0 0.0 14.517 -46.4404 10.5563 0.0 54.8582 0.0 -22.2804 23.06064 3.36758 0.0 -18.76297 0.0 14.2019 -64.1936 367.802 0.0 122.969 0.0 16.0101 12.03014 12.4086 0.0 -39.5735 0.0 
  0.5431119918823242 10.3068994140625 6.84072998046875 2.26904 71.3169 -359.681 -2.02886 3.23503 7.10505 -0.494458 23.4391 0.568945 15.5947 25.1048 -33.3886 85.9202 -74.838 1534.41 -114.9935 8.30206 7.35672 -52.8179 41.9488 48.5075 0.0 11.9685 0.0 35.6211 -6.26607 46.6065 0.0 0.0 0.0 0.0 0.0 0.0 117.7284 5.54802 -4.87169 61.6689 34.8975 -364.741 0.0 141.939 0.0 26.6919 19.4117 33.518 0.0 0.0 0.0 0.0 0.0 0.0 14.7141 -45.7661 11.0558 0.0 54.0976 0.0 -17.7951 21.55855 1.77263 0.0 -17.544529 0.0 14.6662 -64.3698 368.764 0.0 123.062 0.0 15.8473 12.62808 13.4286 0.0 -40.0019 0.0 
  0.5585020065307618 10.29 6.843629760742187 1.66345 71.5802 -359.256 -1.85308 2.99547 7.0826 -0.388969 23.7182 0.583702 16.0875 24.8332 -33.5025 86.516 -74.5183 1534.81 -115.0413 8.46973 7.3944 -52.4827 41.7931 47.7847 0.0 11.9162 0.0 35.3269 -6.71701 45.9079 0.0 0.0 0.0 0.0 0.0 0.0 117.6505 5.58788 -4.57607 61.962 34.7382 -364.814 0.0 141.94 0.0 26.9818 19.9246 33.2315 0.0 0.0 0.0 0.0 0.0 0.0 14.8962 -44.9781 11.2718 0.0 53.374 0.0 -17.1418 18.76452 0.015475 0.0 -17.21644 0.0 15.1991 -64.7072 369.665 0.0 123.062 0.0 16.4857 13.78057 14.1491 0.0 -41.2683 0.0 
  0.5754249954223633 10.273900146484374 6.8464898681640625 1.2338 71.8245 -358.919 -1.64054 2.77596 7.04412 -0.450282 23.9678 0.546311 16.8764 24.6826 -33.8206 87.4168 -74.156 1535.74 -115.0782 8.66443 7.39798 -52.1038 41.6224 47.0095 0.0 11.6845 0.0 34.885 -6.88796 44.9571 0.0 0.0 0.0 0.0 0.0 0.0 117.588 5.33335 -4.89688 62.3624 35.3434 -364.063 0.0 140.789 0.0 29.7818 24.3492 34.7523 0.0 0.0 0.0 0.0 0.0 0.0 14.9693 -44.2546 11.6619 0.0 52.7865 0.0 -15.7583 15.816765 -1.3624 0.0 -16.96651 0.0 15.3475 -65.2444 370.148 0.0 123.189 0.0 17.2519 15.304325 14.7081 0.0 -42.0701 0.0 
  0.5909249877929688 10.262099609375 6.84698974609375 1.01009 71.96 -358.752 -1.57121 2.66671 6.91923 -0.235445 24.4456 0.460527 17.3122 23.8558 -34.2026 86.8189 -73.799 1535.41 -115.191696 8.727 7.26644 -51.7825 41.6369 46.2958 0.0 11.5502 0.0 34.4459 -7.29151 43.1472 0.0 0.0 0.0 0.0 0.0 0.0 117.805 5.58875 -4.55033 61.9157 35.0001 -364.878 0.0 141.809 0.0 26.6096 21.3419 33.1518 0.0 0.0 0.0 0.0 0.0 0.0 15.015 -43.6319 12.3923 0.0 52.287 0.0 -16.1845 13.7694 -1.62411 0.0 -16.41251 0.0 15.1907 -65.7051 370.139 0.0 123.527 0.0 17.8865 16.39902 14.4145 0.0 -42.8132 0.0 
  0.6065029907226562 10.251600341796875 6.847319946289063 1.18533 72.0619 -358.681 -1.56574 2.58768 6.66114 -0.0542222 24.9484 0.203484 17.5477 23.3383 -34.2233 87.0173 -73.458 1535.62 -115.2814 8.8684 7.26541 -51.2234 41.666 45.4226 0.0 11.5531 0.0 34.441 -7.37707 42.7496 0.0 0.0 0.0 0.0 0.0 0.0 117.7978 5.63056 -4.47021 62.0693 35.1193 -364.735 0.0 141.804 0.0 26.9348 21.7775 33.2653 0.0 0.0 0.0 0.0 0.0 0.0 14.7473 -43.4968 12.4928 0.0 51.7599 0.0 -15.6238 14.184936 -1.48719 0.0 -15.103819 0.0 14.132 -66.2224 369.228 0.0 124.094 0.0 18.2681 17.37248 13.8954 0.0 -43.7938 0.0 
  0.618390998840332 10.24949951171875 6.8435400390625 0.877829 72.0475 -358.164 -1.43966 2.81259 6.45066 0.123908 25.3464 0.0195286 17.8454 22.5583 -34.4103 86.7389 -73.0845 1535.48 -115.2854 8.94955 7.28079 -50.8142 41.8874 45.1084 0.0 11.5849 0.0 35.2422 -6.299 42.732 0.0 0.0 0.0 0.0 0.0 0.0 117.747 5.66639 -4.27932 62.2067 35.047 -364.898 0.0 142.08 0.0 26.1644 21.3775 32.8067 0.0 0.0 0.0 0.0 0.0 0.0 14.8545 -44.0229 12.663 0.0 52.211 0.0 -14.9076 15.123574 -1.34808 0.0 -14.61275 0.0 13.3197 -66.4414 368.33 0.0 124.741 0.0 18.6899 17.73634 13.4655 0.0 -44.0316 0.0 
  0.6238449859619141 10.24780029296875 6.838410034179687 0.294137 72.0736 -357.505 -1.42394 3.02002 6.308 0.503618 25.6119 -0.0494235 18.0552 22.024 -34.5501 86.871 -72.8489 1535.61 -115.2855 9.02595 7.26339 -50.5701 42.1228 45.3995 0.0 11.8146 0.0 36.9622 -6.24819 42.4362 0.0 0.0 0.0 0.0 0.0 0.0 117.6798 5.71146 -4.3893 62.1923 35.1554 -364.603 0.0 142.328 0.0 26.0465 21.1652 32.6984 0.0 0.0 0.0 0.0 0.0 0.0 15.3024 -44.5835 13.1737 0.0 52.9316 0.0 -13.881 15.762398 -1.38347 0.0 -14.637043 0.0 13.081 -66.6034 367.908 0.0 125.434 0.0 18.7177 18.12976 13.2626 0.0 -44.6252 0.0 
  0.624833984375 10.2475 6.833389892578125 -0.0734789 72.0697 -357.125 -1.59869 3.22777 6.16503 1.04032 26.03 -0.107533 18.1182 21.2991 -34.6757 86.9948 -72.6174 1535.73 -115.2248 8.79353 7.05843 -50.6772 42.6636 45.9682 0.0 12.0772 0.0 37.786 -7.01317 41.4047 0.0 0.0 0.0 0.0 0.0 0.0 117.5178 5.91167 -4.11441 62.2515 34.8835 -364.636 0.0 142.624 0.0 25.6194 21.0259 32.6521 0.0 0.0 0.0 0.0 0.0 0.0 15.8332 -44.8855 13.9229 0.0 53.3925 0.0 -13.1396 16.23207 -1.76159 0.0 -14.860563 0.0 12.9892 -66.6781 367.684 0.0 126.103 0.0 18.5412 18.46779 13.1351 0.0 -45.6035 0.0 
  0.6224309921264648 10.2468994140625 6.827880249023438 -0.565552 71.9096 -356.731 -1.90108 3.57191 6.0549 1.7459 26.3778 -0.101645 18.1686 20.8297 -34.7564 87.3743 -72.4743 1536.03 -115.1231 8.6092 6.68913 -51.1699 43.0003 46.0858 0.0 12.1055 0.0 38.4786 -7.6552 41.0158 0.0 0.0 0.0 0.0 0.0 0.0 117.4784 6.01907 -4.42475 61.8994 35.2036 -364.404 0.0 142.863 0.0 24.8118 20.8019 32.5597 0.0 0.0 0.0 0.0 0.0 0.0 16.3936 -44.9283 14.5689 0.0 53.774 0.0 -13.1795 16.37367 -1.92503 0.0 -14.913152 0.0 13.0502 -66.4774 367.511 0.0 126.639 0.0 18.1442 18.34635 12.7571 0.0 -46.564598 0.0 
  0.6192530059814453 10.252900390625 6.824140014648438 -0.212643 71.7983 -357.057 -2.43324 3.99645 5.96203 2.40306 26.6759 -0.123774 18.1988 20.4554 -34.776 88.3341 -72.3539 1536.77 -115.0461 8.47509 6.31015 -51.6724 43.3836 45.9932 0.0 11.967 0.0 38.5287 -7.89764 39.6288 0.0 0.0 0.0 0.0 0.0 0.0 117.5187 6.10267 -4.37027 61.6364 35.2089 -364.251 0.0 143.035 0.0 24.4296 20.8605 32.5564 0.0 0.0 0.0 0.0 0.0 0.0 16.4332 -44.645 14.9017 0.0 53.4067 0.0 -14.1479 16.50128 -2.11156 0.0 -15.755365 0.0 12.5593 -66.2752 366.956 0.0 126.966 0.0 17.5673 17.84707 12.2149 0.0 -47.6078 0.0 
  0.6137009811401367 10.258199462890625 6.820659790039063 -0.0901337 71.7992 -357.221 -2.94899 4.18487 5.86689 3.11114 27.1507 -0.163678 18.0542 19.9557 -34.7245 88.5849 -72.2453 1536.74 -114.9686 8.37324 5.86977 -52.1346 43.7152 45.8068 0.0 11.8511 0.0 38.5575 -7.96133 39.7596 0.0 0.0 0.0 0.0 0.0 0.0 117.4825 6.18482 -4.31618 61.5027 35.3332 -364.183 0.0 143.115 0.0 24.5164 20.9282 32.5578 0.0 0.0 0.0 0.0 0.0 0.0 16.5545 -44.4849 15.2107 0.0 53.1083 0.0 -14.0605 16.29762 -2.0514 0.0 -14.796287 0.0 12.1468 -66.111 366.38 0.0 126.879 0.0 16.7976 17.54002 11.9651 0.0 -49.3107 0.0 
